<?xml version="1.0" encoding="UTF-8"?>
<svg width="598px" height="479px" viewBox="0 0 598 479" version="1.1" xmlns="http://www.w3.org/2000/svg" xmlns:xlink="http://www.w3.org/1999/xlink">
    <!-- Generator: Sketch 44.1 (41455) - http://www.bohemiancoding.com/sketch -->
    <title>BigLogo</title>
    <desc>Created with Sketch.</desc>
    <defs></defs>
    <g id="Web" stroke="none" stroke-width="1" fill="none" fill-rule="evenodd">
        <g id="Desktop-HD" transform="translate(-193.000000, -293.000000)">
            <g id="Jumbo" transform="translate(184.000000, 181.000000)">
                <g id="BigLogo" transform="translate(327.218968, 351.039802) rotate(-35.000000) translate(-327.218968, -351.039802) translate(132.218968, 59.039802)">
                    <path d="M107.618636,443.628397 L107.618636,261.38687 C107.618636,213.373399 120.468281,178.094464 146.167955,155.549008 C171.867628,133.003551 205.402066,121.730992 246.772273,121.730992 C289.396122,121.730992 323.766309,132.272923 349.883864,153.357099 C376.001418,174.441276 389.06,201.683294 389.06,235.083969 C389.06,248.44424 386.552752,257.524912 381.538182,262.32626 C376.523611,267.127607 367.957182,269.528244 355.838636,269.528244 C334.108831,269.528244 323.035154,262.221956 322.617273,247.60916 C320.109987,202.935756 295.664323,180.599389 249.279545,180.599389 C199.13384,180.599389 174.061364,207.52828 174.061364,261.38687 L174.061364,443.628397 C174.061364,497.486987 199.551715,524.415878 250.533182,524.415878 C265.576893,524.415878 278.113132,522.223991 288.142273,517.840153 C298.171414,513.456314 305.379751,507.089406 309.7675,498.739237 C314.155249,490.389068 317.18484,483.082779 318.856364,476.820153 C320.527887,470.557526 321.781511,462.833735 322.617273,453.64855 C323.870915,439.035754 334.735655,431.729466 355.211818,431.729466 C367.330364,431.729466 376.001262,434.130103 381.224773,438.93145 C386.448284,443.732798 389.06,452.81347 389.06,466.17374 C389.06,500.826942 375.89695,529.008339 349.570455,550.718779 C323.243959,572.429218 288.769304,583.284275 246.145455,583.284275 C204.775248,583.284275 171.345279,572.011716 145.854545,549.46626 C120.363812,526.920803 107.618636,491.641869 107.618636,443.628397 Z" id="C" fill="#07D3BC"></path>
                    <path d="M0.0745454545,437.455267 L0.0745454545,22.2451908 C0.0745454545,16.4000726 2.89519907,11.3900463 8.53659091,7.21496183 C14.1779828,3.03987734 21.1773825,0.952366412 29.535,0.952366412 L140.481818,0.952366412 C183.105668,0.952366412 217.266917,12.2249254 242.966591,34.7703817 C268.666265,57.3158379 281.515909,92.5947727 281.515909,140.608244 L281.515909,319.092214 C281.515909,367.105685 268.666265,402.38462 242.966591,424.930076 C217.266917,447.475533 183.105668,458.748092 140.481818,458.748092 L29.535,458.748092 C21.1773825,458.748092 14.1779828,456.660581 8.53659091,452.485496 C2.89519907,448.310412 0.0745454545,443.300385 0.0745454545,437.455267 Z M66.5172727,399.879695 L140.481818,399.879695 C190.209643,399.879695 215.073182,372.950804 215.073182,319.092214 L215.073182,140.608244 C215.073182,86.7496544 190.209643,59.8207634 140.481818,59.8207634 L66.5172727,59.8207634 L66.5172727,399.879695 Z" id="Combined-Shape" fill="#FD5872"></path>
                    <g id="Group-4" transform="translate(107.000000, 391.000000)" fill="#07D3BC">
                        <path d="M62.939673,72.3345637 C52.2571053,74.3349362 45.4680269,72.221374 33.4370455,72.221374 L1.39043264,72.3865613 C0.931279221,66.8257471 0.573863636,61.161346 0.573863636,55.3828989 L0.573863636,6.66092069 L33.4370455,6.66092069 C46.2917183,6.66092069 57.4848958,4.65690396 67.0165909,0.648854962 L67.0165909,55.3828989 C67.0165909,60.1880116 67.7401124,67.6916579 68.2694701,71.7346163 L62.939673,72.3345637 Z" id="Path"></path>
                    </g>
                </g>
            </g>
        </g>
    </g>
</svg>