<svg xmlns="http://www.w3.org/2000/svg" xmlns:xlink="http://www.w3.org/1999/xlink" viewBox="0 0 24 30" version="1.1" x="0px" y="0px"><title>39 - Adobe Photoshop (Outline)</title><desc>Created with Sketch.</desc><g stroke="none" stroke-width="1" fill="none" fill-rule="evenodd"><g fill="#fd5872"><path d="M6.1447,12.4231 L8.9707,12.4231 C9.3767,12.4231 9.7207,12.3441 10.0037,12.1861 C10.2847,12.0281 10.4907,11.8591 10.6207,11.6781 C10.7507,11.4981 10.8517,11.2381 10.9257,10.9001 C10.9987,10.5611 11.0377,10.3081 11.0437,10.1381 C11.0497,9.9691 11.0527,9.7271 11.0527,9.4111 C11.0527,7.6961 10.3357,6.8381 8.9027,6.8381 L6.1447,6.8381 L6.1447,12.4231 Z M6.1447,17.5001 L4.9267,17.5001 L4.9267,5.6541 L9.0047,5.6541 C10.1107,5.6541 10.9307,5.9981 11.4667,6.6861 C12.0027,7.3741 12.2707,8.2771 12.2707,9.3941 C12.2707,9.7891 12.2597,10.1301 12.2367,10.4181 C12.2147,10.7051 12.1437,11.0671 12.0257,11.5011 C11.9067,11.9351 11.7467,12.2901 11.5427,12.5671 C11.3397,12.8441 11.0297,13.0861 10.6127,13.2941 C10.1947,13.5031 9.6987,13.6081 9.1227,13.6081 L6.1447,13.6081 L6.1447,17.5001 Z"/><path d="M13.4723,15.3507 L14.6573,15.2997 C14.7023,15.7177 14.9103,16.0417 15.2833,16.2727 C15.6553,16.5047 16.0843,16.6197 16.5693,16.6197 C17.0543,16.6197 17.4743,16.5097 17.8303,16.2897 C18.1853,16.0697 18.3633,15.7547 18.3633,15.3427 C18.3633,14.9307 18.2113,14.6037 17.9063,14.3607 C17.6013,14.1187 17.2293,13.9267 16.7893,13.7857 C16.3493,13.6447 15.9063,13.4947 15.4613,13.3367 C15.0153,13.1787 14.6233,12.9307 14.2843,12.5927 C13.8673,12.1977 13.6583,11.7157 13.6583,11.1457 C13.6583,10.5757 13.8873,10.0457 14.3443,9.5547 C14.8013,9.0637 15.5423,8.8187 16.5693,8.8187 C16.9303,8.8187 17.2683,8.8607 17.5843,8.9457 C17.9003,9.0297 18.1263,9.1117 18.2613,9.1907 L18.4643,9.3087 L18.0753,10.3757 C17.7143,10.0937 17.2403,9.9527 16.6543,9.9527 C16.0673,9.9527 15.6303,10.0627 15.3423,10.2827 C15.0543,10.5027 14.9103,10.7817 14.9103,11.1197 C14.9103,11.4917 15.0913,11.7857 15.4523,11.9997 C15.8133,12.2147 16.2193,12.3947 16.6703,12.5417 C17.1223,12.6887 17.5703,12.8517 18.0163,13.0327 C18.4613,13.2127 18.8393,13.4947 19.1503,13.8787 C19.4603,14.2617 19.6153,14.7697 19.6153,15.4017 C19.6153,16.0337 19.3613,16.5837 18.8543,17.0517 C18.3463,17.5197 17.6043,17.7537 16.6283,17.7537 C15.6523,17.7537 14.8883,17.5227 14.3353,17.0597 C13.7823,16.5977 13.4953,16.0277 13.4723,15.3507"/><path d="M19.6175,22 L4.3825,22 C3.06667589,22 2.0005,20.9336063 2.0005,19.617 L2.0005,4.383 C2.0005,3.06639365 3.06667589,2 4.3825,2 L19.6175,2 C20.9336064,2 22.0005,3.06667581 22.0005,4.383 L22.0005,19.617 C22.0005,20.9333242 20.9336064,22 19.6175,22 Z M19.6175,24 C22.0380845,24 24.0005,22.0379851 24.0005,19.617 L24.0005,4.383 C24.0005,1.96201488 22.0380845,0 19.6175,0 L4.3825,0 C1.96201494,0 0.0005,1.96191558 0.0005,4.383 L0.0005,19.617 C0.0005,22.0380844 1.96201494,24 4.3825,24 L19.6175,24 Z"/></g></g><text x="0" y="39" fill="#fd5872" font-size="5px" font-weight="bold" font-family="'Helvetica Neue', Helvetica, Arial-Unicode, Arial, Sans-serif">Created by Ben Davis</text><text x="0" y="44" fill="#000000" font-size="5px" font-weight="bold" font-family="'Helvetica Neue', Helvetica, Arial-Unicode, Arial, Sans-serif">from the Noun Project</text></svg>